<svg xmlns="http://www.w3.org/2000/svg" width="48.26" height="46.482" viewBox="0 0 48.26 46.482"><path d="M3.083,11.594c-4.274,6.141-3.745,14.127-.477,20.649.074.159.157.31.238.461A3.247,3.247,0,0,0,3,33a1.7,1.7,0,0,0,.095.167c.052.1.109.205.163.306l.316.534c.058.1.115.2.181.294.111.189.242.376.356.566.052.079.1.157.159.236q.293.46.624.894c.157.215.314.425.483.634.054.077.115.153.171.23l.445.542c.054.062.109.135.167.2.2.238.407.469.616.7,0,0,.006.008.01.014a6.3,6.3,0,0,0,.854.886c.161.165.322.33.493.491l.2.2c.223.209.447.419.683.62,0,0,.006,0,.01.006l.115.1c.205.179.413.358.624.523l.252.211c.171.137.348.268.523.4l.274.209c.187.141.387.28.578.417.07.05.141.1.213.147l.058.046.566.372.242.161c.3.189.59.368.882.546.085.042.169.089.248.137.217.125.443.252.662.368.121.068.246.127.37.189.151.085.308.167.469.252a.652.652,0,0,1,.113.046c.066.03.129.062.193.095.242.121.493.236.755.35a1.641,1.641,0,0,1,.153.068c.29.127.58.248.88.366.068.02.141.054.211.081.272.1.552.207.827.306l.1.036c.308.1.612.205.924.3.072.02.147.046.223.066a9.789,9.789,0,0,0,.952.274c20.657,3.765,26.66-12.42,26.66-12.42-5.043,6.567-13.993,8.3-22.469,6.372-.314-.072-.628-.173-.944-.266q-.575-.17-1.142-.364l-.125-.048c-.274-.093-.538-.2-.805-.3q-.109-.045-.221-.083c-.3-.119-.584-.242-.87-.368-.062-.02-.115-.048-.177-.072q-.365-.168-.727-.342c-.075-.032-.141-.066-.213-.1-.189-.089-.379-.189-.564-.286q-.191-.092-.376-.193c-.228-.121-.455-.252-.683-.376-.068-.048-.147-.089-.225-.133q-.445-.264-.882-.542-.121-.075-.238-.159-.32-.2-.628-.415c-.07-.046-.135-.1-.207-.147q-.3-.208-.592-.427c-.085-.068-.175-.133-.266-.2-.177-.139-.356-.272-.534-.419l-.238-.189q-.342-.276-.672-.566a.52.52,0,0,0-.074-.06l-.7-.636-.2-.189c-.165-.167-.334-.328-.5-.493l-.2-.2q-.319-.317-.622-.65l-.03-.032c-.213-.234-.421-.471-.63-.713-.054-.062-.1-.129-.161-.2l-.455-.558q-.348-.446-.685-.9C4.343,23.5,2.642,14.638,6.4,7.372m9.94-.95c-3.1,4.447-2.923,10.395-.511,15.1A18.321,18.321,0,0,0,17.2,23.8a10.677,10.677,0,0,0,1.595,1.985c.215.246.449.483.693.723l.181.181q.344.332.7.654l.03.026q.407.356.834.689c.068.046.127.1.193.147.282.217.566.427.86.634l.03.018c.125.091.258.173.4.262.056.036.121.085.181.121.213.137.423.266.638.4.034.014.064.032.1.046.181.111.379.217.568.316.066.04.131.07.2.109.135.066.268.137.4.205l.064.028c.272.133.55.258.821.383.068.026.127.048.185.077.223.1.451.189.674.276.1.034.2.074.29.1.205.077.421.147.624.217l.282.091a6.814,6.814,0,0,0,.9.26c15.946,2.643,19.638-9.638,19.638-9.638-3.324,4.784-9.757,7.063-16.612,5.283q-.455-.118-.9-.262c-.1-.026-.181-.056-.274-.085-.209-.072-.425-.143-.628-.219l-.29-.109c-.225-.091-.455-.175-.674-.272-.068-.03-.131-.05-.183-.081-.282-.127-.566-.252-.84-.387l-.415-.215-.24-.121c-.185-.1-.356-.2-.534-.3a1.249,1.249,0,0,1-.125-.068c-.213-.133-.435-.262-.638-.4-.068-.038-.131-.085-.2-.125l-.419-.274c-.29-.2-.574-.419-.86-.628-.064-.058-.127-.107-.189-.159A19.143,19.143,0,0,1,17.74,14.41,14.417,14.417,0,0,1,18.865,2.85m8.631-.3a9.3,9.3,0,0,0-.745,8.969A12.658,12.658,0,0,0,34.008,18.3c.131.05.258.093.393.141l.177.054c.185.058.372.127.564.169,8.81,1.7,11.194-4.524,11.836-5.438-2.1,3.012-5.615,3.735-9.93,2.686a9.752,9.752,0,0,1-1.039-.322,12.773,12.773,0,0,1-1.242-.511,13.129,13.129,0,0,1-2.174-1.329C28.727,10.821,26.333,5.232,28.853.679" transform="translate(-0.016 -0.679)" fill="#0963a1" opacity="0.99"/></svg>